<?xml version="1.0" encoding="UTF-8"?>
<svg id="Layer_1" data-name="Layer 1" xmlns="http://www.w3.org/2000/svg" viewBox="0 0 675.16 512">
  <defs>
    <style>
      .cls-1 {
        fill: #fff;
        stroke-width: 0px;
      }
    </style>
  </defs>
  <path class="cls-1" d="M218.3,255.87L.73,476.37c-.49-2.32-.73-4.7-.73-7.07V42.44c0-2.38.24-4.76.73-7.07l217.57,220.5ZM422.71,290.5l-43.42,44.15c-23.32,22.32-60.09,22.32-83.42,0l-43.42-44.15L35.37,511c11.25,2.2,586.88-.03,597.34.73,2.38,0,4.76-.24,7.07-.73l-217.08-220.5ZM632.72,0H42.44c-2.38,0-4.76.24-7.07.73l295.13,299.53c1.59,2.35,4.24,3.75,7.07,3.75s5.49-1.4,7.07-3.75L640.03.73c-2.41-.49-4.85-.73-7.32-.73h0ZM674.42,35.37l-217.57,220.5,217.57,220.5c.49-2.32.73-4.7.73-7.07V42.44c0-2.38-.24-4.76-.73-7.07h0Z"/>
</svg>