<svg width="209" height="271" viewBox="0 0 209 271" fill="none" xmlns="http://www.w3.org/2000/svg">
<path d="M13.3625 82.0671L7.87336 65.3176M7.87336 65.3176L0.874756 43.9621L16.2098 63.0839M7.87336 65.3176L2.85752 66.6616M7.87336 65.3176L16.2098 63.0839M16.2098 63.0839L28.2372 78.0814M16.2098 63.0839L25.3821 60.6262M22.0939 36.4545L44.3869 73.7541L60.1116 69.5406M46.8045 33.4773L70.3115 66.8076L66.0065 45.6414L82.6362 63.5052L71.1347 20.581M96.6915 61.5611L93.0076 41.8789M93.0076 41.8789L89.3037 22.0897L101.383 38.6929M93.0076 41.8789L87.431 44.0002M93.0076 41.8789L101.383 38.6929M101.383 38.6929L114.541 56.7783M101.383 38.6929L107.686 36.2953M107.298 19.5457L121.256 30.8374M120.048 16.1294L125.166 53.9314M145.639 14.7384L139.88 12.3088M139.88 12.3088L135.468 10.4472M139.88 12.3088L135.703 1.4579M139.88 12.3088L143.438 21.5514M135.468 10.4472L131.772 8.88819L132.797 12.7131L137.864 16.9219M135.468 10.4472L131.848 0.668945M135.468 10.4472L137.864 16.9219M137.864 16.9219L143.438 21.5514M137.864 16.9219L147.602 43.2266M143.438 21.5514L159.749 35.0993L152.699 41.0879L151.201 41.7167M143.438 21.5514L151.201 41.7167M151.201 41.7167L147.602 43.2266M151.201 41.7167L156.685 55.9626M147.602 43.2266L143.691 44.8682L141.641 37.2183M147.602 43.2266L151.638 54.1265M43.525 111.336L37.7665 108.907M37.7665 108.907L33.3539 107.045M37.7665 108.907L33.5895 98.056M37.7665 108.907L41.3244 118.149M33.3539 107.045L29.6588 105.486L30.6837 109.311L35.7509 113.52M33.3539 107.045L29.734 97.267M33.3539 107.045L35.7509 113.52M35.7509 113.52L41.3244 118.149M35.7509 113.52L45.4889 139.825M41.3244 118.149L57.6353 131.697L50.5854 137.686L49.0871 138.315M41.3244 118.149L49.0871 138.315M49.0871 138.315L45.4889 139.825M49.0871 138.315L54.571 152.561M45.4889 139.825L41.5772 141.466L39.5274 133.816M45.4889 139.825L49.524 150.725M56.4944 101.94L64.9637 97.8484M64.9637 97.8484L73.4331 93.757M64.9637 97.8484L71.4405 133.92M88.0324 108.293L84.2246 88.1324L99.3963 95.4548L88.0324 108.293ZM88.0324 108.293L91.8402 128.454M88.0324 108.293L106.571 122.229M112.593 86.9081L119.267 122.016M121.943 84.4028L138.142 121.058L134.86 78.2088M151.693 76.4314L151.869 77.3581M151.869 77.3581L154.727 92.3938M151.869 77.3581C149.886 78.1933 148.166 78.9695 147.048 79.4979M151.869 77.3581C155.146 75.9777 159.14 74.4359 162.318 73.5845M154.727 92.3938L158.367 111.539L167.564 99.9646M154.727 92.3938C151.814 94.7717 149.246 97.258 147.695 98.9114M154.727 92.3938C158.247 89.5211 162.272 86.8065 165.62 85.9093M75.6277 198.846L78.9972 178.886M78.9972 178.886L83.198 154L89.2257 172.894M78.9972 178.886C76.0921 180.771 73.5004 182.592 71.642 183.972M78.9972 178.886C82.2126 176.799 85.8119 174.632 89.2257 172.894M89.2257 172.894L94.5775 189.669M89.2257 172.894C92.8165 171.066 96.202 169.714 98.7195 169.428M109.908 187.383L105.692 146.151C110.221 157.388 119.445 180.819 120.108 184.65C120.935 189.439 122.503 149.39 121.417 141.938M137.061 178.079L134.197 140.335C139.128 139.47 148.596 141.032 147.024 154.207C145.909 163.561 141.192 172.273 137.061 178.079ZM137.061 178.079L137.077 178.282M137.061 178.079C135.374 180.451 133.784 182.339 132.577 183.587M34.7775 248.055L27.8031 236.258C30.1578 230.313 36.4293 221.193 42.6778 232.273C48.9263 243.353 40.0144 247.411 34.7775 248.055ZM34.7775 248.055L47.7963 270.075M61.5949 240.869L53.9472 223.331L69.7939 226.373L61.5949 240.869ZM61.5949 240.869L70.4876 261.262M61.5949 240.869C68.91 244.071 83.9047 251.836 85.3623 257.276M139.608 212.677L132.882 201.725C134.124 197.293 138.837 190.291 147.757 197.74C156.676 205.189 146.041 210.802 139.608 212.677ZM139.608 212.677L150.659 230.67M155.626 189.71L156.16 190.658M156.16 190.658L163.554 203.8M156.16 190.658L153.957 191.979M156.16 190.658L167.693 183.743M163.554 203.8L173.889 222.167L180.597 214.904M163.554 203.8L154.914 210.853M163.554 203.8L169.864 198.648M186.913 194.62L180.017 180.441C184.53 178.017 193.995 175.147 195.75 183.058C197.298 190.033 191.257 193.446 186.913 194.62ZM186.913 194.62L188.342 197.559M186.913 194.62C186.33 194.777 185.777 194.894 185.278 194.974M188.342 197.559L197.263 215.904M188.342 197.559L184.003 195.316M188.342 197.559L207.797 207.616M121.415 211.631L115.657 209.201M115.657 209.201L111.244 207.339M115.657 209.201L111.48 198.35M115.657 209.201L119.215 218.444M111.244 207.339L107.549 205.78L108.574 209.605L113.641 213.814M111.244 207.339L107.624 197.561M111.244 207.339L113.641 213.814M113.641 213.814L119.215 218.444M113.641 213.814L123.379 240.119M119.215 218.444L135.526 231.991L128.476 237.98L126.977 238.609M119.215 218.444L126.977 238.609M126.977 238.609L123.379 240.119M126.977 238.609L132.461 252.855M123.379 240.119L119.467 241.76L117.418 234.11M123.379 240.119L127.414 251.019M107.854 238.52C111.671 230.665 101.811 209.165 88.014 213.773C74.2172 218.381 89.2325 276.846 107.854 238.52Z" stroke="black" stroke-width="1.4"/>
</svg>
