<svg width="21" height="19" viewBox="0 0 21 19" fill="none" xmlns="http://www.w3.org/2000/svg">
<path d="M21 2.82375C20.2154 3.18288 19.3802 3.41898 18.5238 3.52375C19.4323 2.96375 20.1069 2.09327 20.4225 1.07375C19.5912 1.58125 18.6725 1.94875 17.6838 2.14125C17.2847 1.70253 16.7984 1.35211 16.2559 1.11252C15.7134 0.872919 15.1268 0.749437 14.5338 0.750002C13.874 0.756746 13.2244 0.912911 12.6337 1.20676C12.043 1.50061 11.5266 1.92451 11.1232 2.44661C10.7198 2.9687 10.44 3.57542 10.3048 4.22118C10.1696 4.86694 10.1825 5.53494 10.3425 6.175C8.61871 6.08089 6.93484 5.62011 5.40331 4.82341C3.87179 4.02672 2.52785 2.91245 1.46125 1.555C0.904828 2.52842 0.733642 3.67511 0.9815 4.7686C1.22936 5.86209 1.87824 6.82289 2.8 7.46125C2.11369 7.43624 1.44387 7.244 0.84875 6.90125V6.9625C0.84875 9.0975 2.33625 10.8825 4.305 11.2938C3.67168 11.4674 3.00667 11.4913 2.3625 11.3638C2.91375 13.1225 4.50625 14.4 6.3875 14.435C5.50069 15.1544 4.47809 15.6879 3.38068 16.0035C2.28327 16.3192 1.13352 16.4107 0 16.2725C1.96042 17.5654 4.25786 18.2531 6.60625 18.25C14.5338 18.25 18.8562 11.5125 18.8562 5.67625V5.1075C19.6962 4.48625 20.4225 3.7075 21 2.82375Z" fill="#535353"/>
</svg>
