<svg width="23" height="17" viewBox="0 0 23 17" fill="none" xmlns="http://www.w3.org/2000/svg">
<path d="M11.5383 0.00958332C12.1037 0.00958332 18.7642 0.02875 20.4892 0.48875C20.9788 0.623708 21.4244 0.885156 21.781 1.24683C22.1376 1.6085 22.3928 2.05765 22.5208 2.54917C23 4.37 23 8.15542 23 8.15542V8.19375C23 8.60583 22.9712 12.0558 22.5208 13.7521C22.3942 14.2454 22.1397 14.6965 21.783 15.06C21.4263 15.4234 20.98 15.6863 20.4892 15.8221C18.8025 16.2821 12.3912 16.3013 11.5767 16.3108H11.4137C10.5992 16.3108 4.18792 16.2821 2.51083 15.8317C2.01884 15.6951 1.57175 15.4307 1.21493 15.0655C0.858109 14.7003 0.604267 14.2471 0.479167 13.7521C0.0766667 12.2092 0.00958333 9.24792 0 8.38542V7.90625C0.00958333 7.04375 0.0766667 4.0825 0.479167 2.53958C0.608703 2.04983 0.864521 1.60267 1.22105 1.24277C1.57758 0.882884 2.02232 0.622879 2.51083 0.48875C4.23583 0.0191666 10.8962 0 11.4617 0L11.5383 0.00958332ZM9.1425 4.70542V11.5863L15.1608 8.15542L9.1425 4.715V4.70542Z" fill="#535353"/>
</svg>
